<svg xmlns="http://www.w3.org/2000/svg" xmlns:svg="http://www.w3.org/2000/svg" id="svg24" enable-background="new 0 0 500 500" version="1.1" viewBox="0 0 1000 1000" xml:space="preserve"><metadata id="metadata10"/><style id="style12" type="text/css">.st0{fill:#e5e5ea}.st1{fill:#4b4b4b}</style><switch id="switch22" transform="translate(0,529.88)"><g id="g20"><g id="g18" transform="translate(250,-279.88)"><circle id="circle14" cx="250" cy="250" r="250" class="st0" style="fill:#e5e5ea"/><path id="path16" d="m 250,61.2 c -104.3,0 -189,84.8 -189,189 0,103.9 84.8,188.7 189,188.7 104.3,0 189,-84.8 189,-188.7 0,-104.3 -84.7,-189 -189,-189 z m -37.6,222.5 c -5,-7.8 -13.7,-12.9 -23.6,-12.9 -15.5,0 -28.1,12.6 -28.1,28.1 0,15.5 12.6,28.1 28.1,28.1 10.3,0 19.3,-5.6 24.2,-14 h 172.8 c -20.2,50.8 -68.6,87.3 -135.7,87.3 -91.7,0 -150.2,-67.5 -150.2,-150.2 0,-8.1 0.7,-14.8 2.2,-22.6 h 189.7 c 4.9,8.1 13.8,13.6 24,13.6 15.5,0 28.1,-12.6 28.1,-28.1 0,-15.5 -12.7,-28.1 -28.1,-28.1 -10.4,0 -19.4,5.2 -24.3,13.6 H 109.1 C 128,142.3 178.8,99.7 250,99.7 c 90.4,0 150.5,67.5 150.5,150.5 0,11.7 -1.9,22.6 -4.8,33.6 H 212.4 Z" class="st1" style="fill:#4b4b4b"/></g></g></switch></svg>